HIERARCHY
ROOT Hips
{
	OFFSET -0.087744 88.518600 4.106688
	CHANNELS 6 Xposition Yposition Zposition Zrotation Yrotation Xrotation 
	JOINT Spine
	{
		OFFSET 0.000000 8.814246 -2.080107
		CHANNELS 3 Zrotation Yrotation Xrotation
		JOINT Spine1
		{
			OFFSET -0.000000 8.844141 -0.000000
			CHANNELS 3 Zrotation Yrotation Xrotation
			JOINT Spine2
			{
				OFFSET 0.000000 11.682268 0.000000
				CHANNELS 3 Zrotation Yrotation Xrotation
				JOINT Spine3
				{
					OFFSET 0.000000 11.746700 0.000000
					CHANNELS 3 Zrotation Yrotation Xrotation
					JOINT Neck
					{
						OFFSET 0.000000 17.658264 -0.000000
						CHANNELS 3 Zrotation Yrotation Xrotation
						JOINT Neck1
						{
							OFFSET -0.000000 5.101515 -0.000000
							CHANNELS 3 Zrotation Yrotation Xrotation
							JOINT Head
							{
								OFFSET -0.000000 5.101515 -0.000000
								CHANNELS 3 Zrotation Yrotation Xrotation
								JOINT HeadEnd
								{
									OFFSET 0.000000 11.655085 0.000000
									CHANNELS 3 Zrotation Yrotation Xrotation
									End Site
									{
										OFFSET 0.000000 0.000000 0.000000
									}
								}
							}
						}
					}
					JOINT RightShoulder
					{
						OFFSET -2.625389 11.175210 0.000000
						CHANNELS 3 Zrotation Yrotation Xrotation
						JOINT RightArm
						{
							OFFSET 0.000000 10.434715 -0.000000
							CHANNELS 3 Zrotation Yrotation Xrotation
							JOINT RightForeArm
							{
								OFFSET -0.000000 29.628420 0.000000
								CHANNELS 3 Zrotation Yrotation Xrotation
								JOINT RightHand
								{
									OFFSET -0.000000 22.857611 0.000000
									CHANNELS 3 Zrotation Yrotation Xrotation
									JOINT RightHandThumb1
									{
										OFFSET -2.867323 3.959563 2.944291
										CHANNELS 3 Zrotation Yrotation Xrotation
										JOINT RightHandThumb2
										{
											OFFSET -0.000000 3.350399 0.000000
											CHANNELS 3 Zrotation Yrotation Xrotation
											JOINT RightHandThumb3
											{
												OFFSET 0.000000 3.756509 -0.000000
												CHANNELS 3 Zrotation Yrotation Xrotation
												JOINT RightHandThumb4
												{
													OFFSET -0.000000 3.147345 0.000000
													CHANNELS 3 Zrotation Yrotation Xrotation
													End Site
													{
														OFFSET 0.000000 0.000000 0.000000
													}
												}
											}
										}
									}
									JOINT RightHandIndex1
									{
										OFFSET -0.086752 10.030893 2.345280
										CHANNELS 3 Zrotation Yrotation Xrotation
										JOINT RightHandIndex2
										{
											OFFSET 0.000000 4.061090 -0.000000
											CHANNELS 3 Zrotation Yrotation Xrotation
											JOINT RightHandIndex3
											{
												OFFSET 0.000000 3.248873 -0.000000
												CHANNELS 3 Zrotation Yrotation Xrotation
												JOINT RightHandIndex4
												{
													OFFSET 0.000000 2.639709 -0.000000
													CHANNELS 3 Zrotation Yrotation Xrotation
													End Site
													{
														OFFSET 0.000000 0.000000 0.000000
													}
												}
											}
										}
									}
									JOINT RightHandMiddle1
									{
										OFFSET 0.104102 9.502952 0.006768
										CHANNELS 3 Zrotation Yrotation Xrotation
										JOINT RightHandMiddle2
										{
											OFFSET 0.000000 4.568727 -0.000000
											CHANNELS 3 Zrotation Yrotation Xrotation
											JOINT RightHandMiddle3
											{
												OFFSET -0.000000 3.654981 0.000000
												CHANNELS 3 Zrotation Yrotation Xrotation
												JOINT RightHandMiddle4
												{
													OFFSET 0.000000 2.741236 0.000000
													CHANNELS 3 Zrotation Yrotation Xrotation
													End Site
													{
														OFFSET 0.000000 0.000000 0.000000
													}
												}
											}
										}
									}
									JOINT RightHandRing1
									{
										OFFSET 0.086752 8.921708 -2.267442
										CHANNELS 3 Zrotation Yrotation Xrotation
										JOINT RightHandRing2
										{
											OFFSET 0.000000 4.061090 -0.000000
											CHANNELS 3 Zrotation Yrotation Xrotation
											JOINT RightHandRing3
											{
												OFFSET -0.000000 3.654981 0.000000
												CHANNELS 3 Zrotation Yrotation Xrotation
												JOINT RightHandRing4
												{
													OFFSET 0.000000 2.741236 -0.000000
													CHANNELS 3 Zrotation Yrotation Xrotation
													End Site
													{
														OFFSET 0.000000 0.000000 0.000000
													}
												}
											}
										}
									}
									JOINT RightHandPinky1
									{
										OFFSET -0.173504 7.976997 -4.467199
										CHANNELS 3 Zrotation Yrotation Xrotation
										JOINT RightHandPinky2
										{
											OFFSET 0.000000 3.350399 0.000000
											CHANNELS 3 Zrotation Yrotation Xrotation
											JOINT RightHandPinky3
											{
												OFFSET 0.000000 2.842763 -0.000000
												CHANNELS 3 Zrotation Yrotation Xrotation
												JOINT RightHandPinky4
												{
													OFFSET -0.000000 2.639709 -0.000000
													CHANNELS 3 Zrotation Yrotation Xrotation
													End Site
													{
														OFFSET 0.000000 0.000000 0.000000
													}
												}
											}
										}
									}
									JOINT RightForeArmEnd
									{
										OFFSET 0.000000 0.000000 0.000000
										CHANNELS 3 Zrotation Yrotation Xrotation
										End Site
										{
											OFFSET 0.000000 0.000000 0.000000
										}
									}
								}
								JOINT RightArmEnd
								{
									OFFSET 0.000000 0.000000 0.000000
									CHANNELS 3 Zrotation Yrotation Xrotation
									End Site
									{
										OFFSET 0.000000 0.000000 0.000000
									}
								}
							}
						}
					}
					JOINT LeftShoulder
					{
						OFFSET 2.625389 11.175210 -0.000000
						CHANNELS 3 Zrotation Yrotation Xrotation
						JOINT LeftArm
						{
							OFFSET -0.000000 10.813635 0.000000
							CHANNELS 3 Zrotation Yrotation Xrotation
							JOINT LeftForeArm
							{
								OFFSET -0.000000 28.724781 0.000000
								CHANNELS 3 Zrotation Yrotation Xrotation
								JOINT LeftHand
								{
									OFFSET 0.644384 25.716167 -0.328871
									CHANNELS 3 Zrotation Yrotation Xrotation
									JOINT LeftHandThumb1
									{
										OFFSET 2.867323 3.959563 2.944291
										CHANNELS 3 Zrotation Yrotation Xrotation
										JOINT LeftHandThumb2
										{
											OFFSET -0.000000 3.350399 0.000000
											CHANNELS 3 Zrotation Yrotation Xrotation
											JOINT LeftHandThumb3
											{
												OFFSET -0.000000 3.756509 -0.000000
												CHANNELS 3 Zrotation Yrotation Xrotation
												JOINT LeftHandThumb4
												{
													OFFSET 0.000000 3.100000 -0.000000
													CHANNELS 3 Zrotation Yrotation Xrotation
													End Site
													{
														OFFSET 0.000000 0.000000 0.000000
													}
												}
											}
										}
									}
									JOINT LeftHandIndex1
									{
										OFFSET 0.086752 10.030893 2.345280
										CHANNELS 3 Zrotation Yrotation Xrotation
										JOINT LeftHandIndex2
										{
											OFFSET -0.000000 4.061090 0.000000
											CHANNELS 3 Zrotation Yrotation Xrotation
											JOINT LeftHandIndex3
											{
												OFFSET 0.000000 3.248873 0.000000
												CHANNELS 3 Zrotation Yrotation Xrotation
												JOINT LeftHandIndex4
												{
													OFFSET 0.000000 2.639709 -0.000000
													CHANNELS 3 Zrotation Yrotation Xrotation
													End Site
													{
														OFFSET 0.000000 0.000000 0.000000
													}
												}
											}
										}
									}
									JOINT LeftHandMiddle1
									{
										OFFSET -0.104102 9.502952 0.006768
										CHANNELS 3 Zrotation Yrotation Xrotation
										JOINT LeftHandMiddle2
										{
											OFFSET 0.000000 4.568727 -0.000000
											CHANNELS 3 Zrotation Yrotation Xrotation
											JOINT LeftHandMiddle3
											{
												OFFSET 0.000000 3.654981 0.000000
												CHANNELS 3 Zrotation Yrotation Xrotation
												JOINT LeftHandMiddle4
												{
													OFFSET -0.000000 2.741236 -0.000000
													CHANNELS 3 Zrotation Yrotation Xrotation
													End Site
													{
														OFFSET 0.000000 0.000000 0.000000
													}
												}
											}
										}
									}
									JOINT LeftHandRing1
									{
										OFFSET -0.086752 8.921708 -2.267442
										CHANNELS 3 Zrotation Yrotation Xrotation
										JOINT LeftHandRing2
										{
											OFFSET -0.000000 4.061090 -0.000000
											CHANNELS 3 Zrotation Yrotation Xrotation
											JOINT LeftHandRing3
											{
												OFFSET 0.000000 3.654981 0.000000
												CHANNELS 3 Zrotation Yrotation Xrotation
												JOINT LeftHandRing4
												{
													OFFSET -0.000000 2.741236 -0.000000
													CHANNELS 3 Zrotation Yrotation Xrotation
													End Site
													{
														OFFSET 0.000000 0.000000 0.000000
													}
												}
											}
										}
									}
									JOINT LeftHandPinky1
									{
										OFFSET 0.173504 7.976997 -4.467199
										CHANNELS 3 Zrotation Yrotation Xrotation
										JOINT LeftHandPinky2
										{
											OFFSET 0.000000 3.350399 0.000000
											CHANNELS 3 Zrotation Yrotation Xrotation
											JOINT LeftHandPinky3
											{
												OFFSET -0.000000 2.842763 -0.000000
												CHANNELS 3 Zrotation Yrotation Xrotation
												JOINT LeftHandPinky4
												{
													OFFSET -0.000000 2.639709 -0.000000
													CHANNELS 3 Zrotation Yrotation Xrotation
													End Site
													{
														OFFSET 0.000000 0.000000 0.000000
													}
												}
											}
										}
									}
									JOINT LeftForeArmEnd
									{
										OFFSET 0.000000 0.000000 0.000000
										CHANNELS 3 Zrotation Yrotation Xrotation
										End Site
										{
											OFFSET 0.000000 0.000000 0.000000
										}
									}
								}
								JOINT LeftArmEnd
								{
									OFFSET 0.000000 0.000000 0.000000
									CHANNELS 3 Zrotation Yrotation Xrotation
									End Site
									{
										OFFSET 0.000000 0.000000 0.000000
									}
								}
							}
						}
					}
				}
			}
		}
	}
	JOINT RightUpLeg
	{
		OFFSET -11.289943 0.000000 0.000000
		CHANNELS 3 Zrotation Yrotation Xrotation
		JOINT RightLeg
		{
			OFFSET -0.000000 -38.200325 -0.000000
			CHANNELS 3 Zrotation Yrotation Xrotation
			JOINT RightFoot
			{
				OFFSET -0.000000 -39.900856 -0.000000
				CHANNELS 3 Zrotation Yrotation Xrotation
				JOINT RightToeBase
				{
					OFFSET 0.000000 0.000000 15.261641
					CHANNELS 3 Zrotation Yrotation Xrotation
					JOINT RightToeBaseEnd
					{
						OFFSET 0.000000 0.000000 7.370709
						CHANNELS 3 Zrotation Yrotation Xrotation
						End Site
						{
							OFFSET 0.000000 0.000000 0.000000
						}
					}
				}
				JOINT RightLegEnd
				{
					OFFSET 0.000000 0.000000 0.000000
					CHANNELS 3 Zrotation Yrotation Xrotation
					End Site
					{
						OFFSET 0.000000 0.000000 0.000000
					}
				}
			}
			JOINT RightUpLegEnd
			{
				OFFSET 0.000000 0.000000 0.000000
				CHANNELS 3 Zrotation Yrotation Xrotation
				End Site
				{
					OFFSET 0.000000 0.000000 0.000000
				}
			}
		}
	}
	JOINT LeftUpLeg
	{
		OFFSET 11.315661 0.000000 -0.000000
		CHANNELS 3 Zrotation Yrotation Xrotation
		JOINT LeftLeg
		{
			OFFSET 0.000000 -38.200325 0.000000
			CHANNELS 3 Zrotation Yrotation Xrotation
			JOINT LeftFoot
			{
				OFFSET 0.000000 -39.900856 -0.000000
				CHANNELS 3 Zrotation Yrotation Xrotation
				JOINT LeftToeBase
				{
					OFFSET 0.000000 0.000000 15.261641
					CHANNELS 3 Zrotation Yrotation Xrotation
					JOINT LeftToeBaseEnd
					{
						OFFSET -0.000000 0.000000 7.539996
						CHANNELS 3 Zrotation Yrotation Xrotation
						End Site
						{
							OFFSET 0.000000 0.000000 0.000000
						}
					}
				}
				JOINT LeftLegEnd
				{
					OFFSET 0.000000 0.000000 0.000000
					CHANNELS 3 Zrotation Yrotation Xrotation
					End Site
					{
						OFFSET 0.000000 0.000000 0.000000
					}
				}
			}
			JOINT LeftUpLegEnd
			{
				OFFSET 0.000000 0.000000 0.000000
				CHANNELS 3 Zrotation Yrotation Xrotation
				End Site
				{
					OFFSET 0.000000 0.000000 0.000000
				}
			}
		}
	}
}
MOTION
Frames: 5
Frame Time: 0.016667
-0.087744 88.518600 4.106688 0.068919 0.010845 -8.942659 0.442413 -0.081069 6.970063 -1.393128 0.231170 0.120594 0.170773 -1.686916 3.633183 0.138037 -0.360124 1.632820 2.669741 1.360534 7.336633 0.504304 2.812674 -2.138667 -0.849185 -0.825950 -18.014040 0.000000 0.000000 0.000000 93.328857 -0.532019 9.249256 66.106537 -37.119999 4.142115 -0.118903 9.345549 21.275049 6.844851 17.264309 -6.195918 11.236529 -1.888869 39.607235 0.000000 0.000000 -27.360001 0.000000 0.000000 -18.999998 0.000000 0.000000 0.000000 16.490267 0.000000 -10.411167 11.543185 0.000000 0.000000 11.543185 0.000000 0.000000 0.000000 0.000000 0.000000 15.680838 0.000000 -10.611974 10.976586 0.000000 0.000000 10.976586 0.000000 0.000000 0.000000 0.000000 0.000000 17.926441 -0.000000 -9.075776 12.548511 0.000000 0.000000 12.548511 0.000000 0.000000 0.000000 0.000000 0.000000 19.209045 0.000000 -9.362014 13.446335 0.000000 0.000000 13.446335 0.000000 0.000000 0.000000 0.000000 0.000000 0.000000 0.000000 0.000000 0.000000 0.000000 0.000000 -92.264565 0.184447 4.508586 -67.528290 31.026754 -4.429007 -0.724142 -2.563973 37.835682 -1.518325 -21.259672 -14.755241 -10.637670 1.840800 39.870987 0.000000 0.000000 -25.919998 0.000000 0.000000 -18.000004 0.000000 0.000000 0.000000 -13.737988 0.000000 -10.271245 -9.616590 0.000000 0.000000 -9.616590 0.000000 0.000000 0.000000 0.000000 0.000000 -13.566373 0.000000 -10.909574 -9.496462 0.000000 0.000000 -9.496462 0.000000 0.000000 0.000000 0.000000 0.000000 -16.906538 -0.000000 -11.246544 -11.834577 0.000000 0.000000 -11.834577 0.000000 0.000000 0.000000 0.000000 0.000000 -19.165680 -0.000000 -11.938169 -13.415976 0.000000 0.000000 -13.415976 0.000000 0.000000 0.000000 0.000000 0.000000 0.000000 0.000000 0.000000 0.000000 0.000000 0.000000 -1.938379 -12.547268 14.781528 -0.051716 -0.791252 3.432337 -0.790947 -7.985100 17.498075 -0.970069 1.135202 -17.740036 0.000000 0.000000 0.000000 0.000000 0.000000 0.000000 0.000000 0.000000 0.000000 -1.007299 -7.770874 9.427107 0.095226 0.552794 9.721728 1.664590 4.975721 15.629977 0.746320 -0.643483 -19.338871 0.000000 0.000000 0.000000 0.000000 0.000000 0.000000 0.000000 0.000000 0.000000 
-0.026615 88.506264 3.915085 -0.464995 -0.219931 -9.142771 1.544825 -0.223674 6.410815 -1.106846 0.154661 1.502340 0.181142 -1.433522 2.251113 -0.917280 -0.329959 3.438423 2.865854 1.394721 5.660799 1.152502 2.881505 -2.217432 -0.710030 -1.028155 -17.243195 0.000000 0.000000 0.000000 92.778175 -0.563376 9.609819 67.470535 -35.663410 4.939769 -0.009837 10.815197 20.681013 6.647000 15.069530 -4.905307 10.975218 -1.855138 39.758751 0.000005 0.000025 -26.853100 0.000012 0.000036 -18.529350 0.000007 -0.000002 -0.000026 15.525198 -0.132896 -8.733289 11.057493 -0.030694 -0.095450 11.220590 -0.013915 -0.103496 -0.000020 0.000023 -0.000025 15.211664 -0.045349 -9.638635 10.603532 -0.005589 -0.047803 10.653341 -0.001204 -0.046970 0.000014 0.000027 0.000004 17.487114 0.035121 -8.894802 11.971035 0.018587 0.082758 11.965529 -0.000259 0.074066 -0.000009 0.000929 0.000004 18.148323 0.085437 -9.724378 12.648526 -0.001608 0.437196 12.443470 -0.028637 0.365119 -0.000099 -0.000005 0.000003 0.000000 0.000000 0.000000 0.000000 0.000000 0.000000 -90.361259 0.127787 6.399394 -68.383911 28.845572 -3.950953 -0.721758 -3.980370 38.293919 0.248167 -17.426983 -16.595591 -10.177615 1.775479 40.080990 -0.000001 0.000024 -24.801985 -0.000031 -0.000026 -17.319822 0.000168 -0.000004 0.000878 -13.362953 -0.065965 -9.618172 -8.993152 -0.043705 -0.089079 -9.372840 -0.032530 -0.048791 0.000015 0.000308 0.000006 -13.318982 -0.024247 -10.391328 -8.918602 -0.014776 -0.017942 -8.817812 -0.005298 -0.007310 0.000988 -0.000045 -0.000000 -16.664742 0.071334 -10.617065 -11.215569 0.015949 -0.040421 -11.097253 0.006361 -0.024090 0.000167 0.000008 0.000007 -18.315701 0.193520 -11.166219 -12.678460 0.051011 -0.097826 -12.618177 0.006332 -0.144050 0.000293 -0.000007 -0.000034 0.000000 0.000000 0.000000 0.000000 0.000000 0.000000 -1.904654 -11.646244 14.836138 -0.078043 -0.765908 4.265041 -1.455863 -9.375287 16.767366 -1.075406 1.061359 -17.203325 0.000000 0.000000 0.000000 0.000000 0.000000 0.000000 0.000000 0.000000 0.000000 0.891004 -4.425498 10.295721 0.099628 0.538799 9.370547 1.345499 2.614831 15.697863 0.609968 -0.492503 -20.015608 0.000000 0.000000 0.000000 0.000000 0.000000 0.000000 0.000000 0.000000 0.000000 
-0.025156 88.489418 3.876209 -0.438655 -0.174427 -9.074512 1.478160 -0.227988 6.401645 -1.131703 0.154316 1.592172 0.181481 -1.523371 2.115226 -0.898870 -0.371438 3.497159 2.969579 1.237913 5.687618 1.144097 2.774641 -2.079045 -0.693521 -1.003651 -17.188547 0.000000 0.000000 0.000000 92.643059 -0.549178 9.623437 67.361786 -35.826279 5.124482 -0.033886 10.820630 20.713318 6.785409 14.651655 -4.912295 10.982066 -1.852721 39.761192 0.000002 0.000042 -26.871216 0.000018 0.000030 -18.543743 0.000011 0.000003 -0.000037 15.534069 -0.124002 -8.641266 11.062899 -0.026458 -0.119490 11.230002 -0.008690 -0.122582 -0.000003 0.000037 -0.000017 15.176855 -0.042255 -9.552821 10.587445 -0.004849 -0.055376 10.618035 0.000333 -0.051470 0.000013 0.000001 -0.000007 17.345924 0.028742 -8.852689 11.884649 0.017415 0.084832 11.885280 -0.000884 0.076751 -0.000016 0.001010 -0.000003 17.934565 0.068222 -9.755861 12.532434 -0.002131 0.439828 12.317990 -0.031138 0.370267 -0.000149 0.000003 -0.000002 0.000000 0.000000 0.000000 0.000000 0.000000 0.000000 -90.125565 0.107330 6.433814 -68.585548 28.836967 -3.781931 -0.657970 -3.740278 38.012970 0.333842 -17.169399 -16.598022 -10.161238 1.768588 40.085068 0.000006 0.000029 -24.797272 -0.000050 -0.000018 -17.319960 0.000087 -0.000001 0.000670 -13.290467 -0.052426 -9.677192 -9.033375 -0.042483 -0.089936 -9.410156 -0.030002 -0.052707 0.000025 0.000282 0.000008 -13.171226 -0.019301 -10.478452 -8.923621 -0.014372 -0.020580 -8.828453 -0.004903 -0.009401 0.001115 -0.000042 -0.000028 -16.359451 0.069782 -10.797018 -11.144491 0.016058 -0.039656 -11.030529 0.006008 -0.024072 0.000333 0.000013 0.000007 -17.902308 0.189090 -11.366204 -12.550617 0.048138 -0.097201 -12.496804 0.002587 -0.141626 0.000275 0.000006 -0.000054 0.000000 0.000000 0.000000 0.000000 0.000000 0.000000 -1.956677 -11.879678 14.688555 -0.075816 -0.765527 4.270867 -1.401533 -9.410078 16.734602 -1.078434 1.072295 -17.149315 0.000000 0.000000 0.000000 0.000000 0.000000 0.000000 0.000000 0.000000 0.000000 0.916825 -4.331335 10.091404 0.100579 0.530124 9.424297 1.287930 2.535310 15.726821 0.624432 -0.500839 -19.992588 0.000000 0.000000 0.000000 0.000000 0.000000 0.000000 0.000000 0.000000 0.000000 
-0.032495 88.467834 3.832002 -0.445093 -0.163632 -9.013686 1.448857 -0.226636 6.439945 -1.165120 0.159258 1.674013 0.217576 -1.566836 2.036229 -0.870362 -0.380420 3.533288 3.015380 1.151305 5.651656 1.148749 2.706579 -2.013241 -0.683584 -1.001326 -17.120720 0.000000 0.000000 0.000000 92.518585 -0.515839 9.686606 67.315666 -35.876003 5.220322 -0.044917 10.911751 20.889631 6.963971 14.384526 -4.946563 11.003011 -1.849836 39.756908 0.000003 0.000041 -26.922165 0.000016 0.000032 -18.583296 0.000010 0.000003 -0.000036 15.592491 -0.123803 -8.588603 11.141046 -0.019806 -0.144825 11.308201 -0.002026 -0.144532 -0.000004 0.000037 -0.000017 15.220480 -0.042794 -9.487764 10.633432 -0.002674 -0.065328 10.654839 0.002606 -0.058724 0.000014 -0.000007 -0.000004 17.306681 0.027416 -8.785658 11.862999 0.014567 0.090731 11.871355 -0.002855 0.082416 -0.000015 0.001049 -0.000002 17.837202 0.067075 -9.701813 12.473536 -0.008509 0.455065 12.253278 -0.037054 0.383600 -0.000194 0.000003 -0.000011 0.000000 0.000000 0.000000 0.000000 0.000000 0.000000 -90.002434 0.112066 6.450808 -68.577751 28.932884 -3.537875 -0.609481 -3.661651 37.768230 0.378365 -16.995981 -16.324852 -10.156489 1.762624 40.087841 0.000005 0.000029 -24.813622 -0.000060 -0.000020 -17.328526 -0.000001 -0.000004 0.000524 -13.257374 -0.050243 -9.695546 -9.110987 -0.040252 -0.084141 -9.489545 -0.026275 -0.049064 0.000024 0.000272 0.000009 -13.093750 -0.018372 -10.484537 -8.971707 -0.013503 -0.019311 -8.876662 -0.003962 -0.008307 0.001262 -0.000042 -0.000041 -16.151518 0.071962 -10.823908 -11.126826 0.014800 -0.042466 -11.014744 0.004862 -0.026479 0.000425 0.000013 0.000007 -17.630474 0.193464 -11.350093 -12.479451 0.042502 -0.106252 -12.422462 -0.002321 -0.145322 0.000214 0.000005 -0.000054 0.000000 0.000000 0.000000 0.000000 0.000000 0.000000 -1.975301 -12.008142 14.510175 -0.073135 -0.757098 4.335977 -1.364053 -9.454288 16.745358 -1.076889 1.076215 -17.136642 0.000000 0.000000 0.000000 0.000000 0.000000 0.000000 0.000000 0.000000 0.000000 0.969626 -4.301322 9.860271 0.103365 0.524896 9.599980 1.227484 2.509135 15.683599 0.638437 -0.506780 -19.969982 0.000000 0.000000 0.000000 0.000000 0.000000 0.000000 0.000000 0.000000 0.000000 
-0.045801 88.440498 3.792245 -0.432471 -0.171950 -8.961726 1.423444 -0.218386 6.486858 -1.205091 0.172697 1.705205 0.248362 -1.576806 2.030738 -0.861841 -0.378054 3.577387 3.027872 1.091174 5.574639 1.158616 2.653520 -2.000100 -0.670870 -1.010138 -17.060146 0.000000 0.000000 0.000000 92.427040 -0.500852 9.769303 67.276604 -35.897156 5.299536 -0.045891 11.064223 21.089403 7.031600 14.228595 -5.021074 11.032867 -1.849004 39.746513 0.000003 0.000040 -26.999474 0.000015 0.000033 -18.638914 0.000009 0.000003 -0.000036 15.740611 -0.124332 -8.564905 11.246595 -0.014603 -0.165379 11.412251 0.003076 -0.163294 -0.000004 0.000037 -0.000016 15.357707 -0.043727 -9.437111 10.709992 -0.000908 -0.074081 10.727050 0.004476 -0.065153 0.000014 -0.000011 -0.000003 17.378265 0.027285 -8.723626 11.880308 0.012606 0.095444 11.895938 -0.004410 0.087004 -0.000015 0.001000 -0.000001 17.857763 0.068632 -9.629178 12.452529 -0.012507 0.465721 12.228460 -0.040967 0.393070 -0.000214 0.000003 -0.000017 0.000000 0.000000 0.000000 0.000000 0.000000 0.000000 -89.933998 0.118573 6.453325 -68.431793 29.027992 -3.297346 -0.585570 -3.658728 37.714832 0.470051 -17.038572 -16.082840 -10.176568 1.759796 40.081055 0.000005 0.000029 -24.881180 -0.000065 -0.000021 -17.373196 -0.000101 -0.000005 0.000429 -13.346293 -0.049581 -9.712502 -9.233230 -0.036887 -0.067758 -9.616232 -0.021912 -0.036153 0.000023 0.000265 0.000009 -13.154802 -0.018286 -10.465354 -9.066882 -0.012209 -0.014230 -8.970127 -0.002671 -0.003840 0.001407 -0.000043 -0.000046 -16.109262 0.074441 -10.803445 -11.161352 0.013482 -0.048666 -11.048469 0.003532 -0.031514 0.000520 0.000014 0.000007 -17.559576 0.197377 -11.262131 -12.462755 0.037599 -0.121533 -12.400695 -0.006383 -0.154834 0.000170 0.000004 -0.000055 0.000000 0.000000 0.000000 0.000000 0.000000 0.000000 -2.012108 -12.072575 14.339026 -0.072071 -0.749277 4.439249 -1.328629 -9.492133 16.716606 -1.076199 1.079975 -17.107676 0.000000 0.000000 0.000000 0.000000 0.000000 0.000000 0.000000 0.000000 0.000000 0.993864 -4.303195 9.667716 0.106668 0.521619 9.778897 1.175079 2.514592 15.611496 0.650120 -0.513016 -19.943228 0.000000 0.000000 0.000000 0.000000 0.000000 0.000000 0.000000 0.000000 0.000000 
